<svg xmlns="http://www.w3.org/2000/svg" viewBox="0 0 64 64" width="64" height="64">
<defs><radialGradient id="neb" cx="50%" cy="50%" r="50%"><stop offset="0%" stop-color="#8ecfc5" stop-opacity="0.5"/><stop offset="45%" stop-color="#64aba1" stop-opacity="0.25"/><stop offset="100%" stop-color="#64aba1" stop-opacity="0"/></radialGradient></defs>
<rect width="64" height="64" rx="14" fill="#101011"/>
<ellipse cx="32" cy="32" rx="26" ry="17" fill="url(#neb)"/>
<circle cx="55.0" cy="30.1" r="1.0" fill="#64aba1" opacity="0.8"/>
<circle cx="9.6" cy="28.8" r="1.0" fill="#64aba1" opacity="0.8"/>
<circle cx="51.8" cy="37.1" r="0.9" fill="#64aba1" opacity="0.8"/>
<circle cx="12.8" cy="37.8" r="0.9" fill="#64aba1" opacity="0.8"/>
<circle cx="58.9" cy="33.3" r="0.8" fill="#64aba1" opacity="0.8"/>
<circle cx="5.8" cy="32.0" r="0.8" fill="#64aba1" opacity="0.8"/>
<circle cx="40.3" cy="21.8" r="0.8" fill="#64aba1" opacity="0.8"/>
<circle cx="25.6" cy="42.9" r="0.8" fill="#64aba1" opacity="0.8"/>
<circle cx="46.1" cy="40.3" r="0.8" fill="#64aba1" opacity="0.8"/>
<circle cx="17.3" cy="25.0" r="0.8" fill="#64aba1" opacity="0.8"/>
<circle cx="61.4" cy="28.2" r="0.7" fill="#64aba1" opacity="0.8"/>
<circle cx="3.2" cy="36.5" r="0.7" fill="#64aba1" opacity="0.8"/>
<circle cx="44.8" cy="28.8" r="2.2" fill="#8ecfc5"/>
<circle cx="19.8" cy="30.7" r="2.2" fill="#8ecfc5"/>
<circle cx="42.2" cy="36.5" r="1.9" fill="#8ecfc5"/>
<circle cx="22.4" cy="35.8" r="1.9" fill="#8ecfc5"/>
<circle cx="49.3" cy="32.6" r="1.8" fill="#8ecfc5"/>
<circle cx="15.4" cy="33.9" r="1.7" fill="#8ecfc5"/>
<circle cx="35.2" cy="24.3" r="1.7" fill="#8ecfc5"/>
<circle cx="30.7" cy="39.7" r="1.5" fill="#8ecfc5"/>
<circle cx="32.0" cy="32.0" r="4.8" fill="#e2f7f1"/>
<circle cx="37.8" cy="30.1" r="3.7" fill="#e2f7f1"/>
<circle cx="26.9" cy="33.3" r="3.5" fill="#e2f7f1"/>
<circle cx="33.9" cy="35.8" r="3.2" fill="#e2f7f1"/>
<circle cx="29.4" cy="28.2" r="2.9" fill="#e2f7f1"/>
<circle cx="32.0" cy="32.0" r="1.9" fill="#ffffff"/>
<circle cx="37.8" cy="30.1" r="1.5" fill="#ffffff"/>
<circle cx="26.9" cy="33.3" r="1.4" fill="#ffffff"/>
<circle cx="33.9" cy="35.8" r="1.3" fill="#ffffff"/>
<circle cx="29.4" cy="28.2" r="1.2" fill="#ffffff"/>
</svg>